<?xml version="1.0" standalone="no"?>
<!DOCTYPE svg PUBLIC "-//W3C//DTD SVG 20010904//EN"
 "http://www.w3.org/TR/2001/REC-SVG-20010904/DTD/svg10.dtd">
<svg version="1.0" xmlns="http://www.w3.org/2000/svg"
 width="700.000000pt" height="700.000000pt" viewBox="0 0 700.000000 700.000000"
 preserveAspectRatio="xMidYMid meet">
<metadata>
Created by potrace 1.14, written by Peter Selinger 2001-2017
</metadata>
<g transform="translate(0.000000,700.000000) scale(0.100000,-0.100000)"
fill="#000000" stroke="none">
<path d="M1152 6986 c-227 -56 -397 -243 -427 -471 -3 -22 -5 -147 -5 -277
l-1 -238 -22 0 c-12 0 -42 -9 -66 -20 -204 -93 -256 -333 -106 -499 36 -39
127 -90 169 -93 l25 -2 0 -177 1 -177 -37 -7 c-88 -16 -171 -82 -212 -168 -27
-55 -30 -71 -28 -142 3 -91 19 -132 78 -199 41 -47 124 -94 171 -98 l27 -2 0
-180 c1 -182 -4 -206 -38 -206 -30 0 -116 -47 -152 -83 -116 -118 -119 -310
-6 -428 43 -45 106 -81 164 -93 l32 -7 -2 -176 -2 -176 -45 -11 c-188 -48
-287 -266 -199 -438 30 -58 104 -125 166 -148 30 -11 60 -20 68 -20 12 0 14
-30 14 -174 l1 -175 -33 -6 c-96 -19 -193 -101 -228 -194 -16 -44 -20 -71 -17
-127 9 -142 95 -245 235 -283 l42 -12 1 -487 c0 -268 3 -503 6 -522 18 -109
91 -247 165 -315 58 -52 135 -99 209 -126 l65 -24 2442 -3 c2115 -2 2452 0
2513 12 227 48 408 242 436 469 4 29 7 1393 7 3032 0 2323 -3 2993 -12 3040
-22 104 -75 200 -155 279 -66 66 -156 123 -223 141 -12 3 -32 9 -45 13 -13 4
-1125 8 -2473 9 -1964 1 -2461 -1 -2503 -11z m4925 -316 c61 -18 137 -92 154
-151 10 -35 13 -672 13 -3029 l0 -2985 -24 -49 c-30 -59 -86 -109 -142 -125
-34 -10 -534 -13 -2428 -13 -1313 0 -2402 3 -2421 7 -87 18 -169 98 -185 180
-5 29 -10 868 -5 958 1 15 13 17 116 17 l115 0 21 -45 c86 -184 346 -184 441
0 30 58 30 157 -1 216 -27 50 -67 90 -120 116 -51 25 -153 23 -207 -5 -37 -19
-106 -85 -115 -110 -5 -12 -32 -14 -159 -13 l-95 1 1 402 1 403 117 0 117 1
18 -41 c67 -149 267 -189 388 -77 55 51 77 103 77 182 0 131 -100 238 -226
242 -83 3 -167 -33 -205 -88 -42 -60 -40 -60 -158 -58 -61 1 -114 3 -120 3 -8
1 -12 589 -6 782 l1 25 120 1 120 0 17 -34 c17 -38 82 -93 128 -111 152 -59
325 55 330 218 7 201 -212 328 -376 217 -32 -21 -92 -92 -101 -119 -5 -15
-238 -19 -239 -3 0 6 -1 192 -2 415 l0 405 119 3 120 3 12 -34 c7 -19 31 -53
54 -75 160 -159 430 -31 413 195 -17 232 -325 307 -451 111 l-24 -38 -120 0
-120 0 -1 33 c-5 169 -3 755 2 767 6 12 27 15 111 13 56 -1 105 -2 108 -2 3
-1 12 -21 19 -45 39 -135 201 -207 332 -149 154 68 194 276 77 394 -52 52 -99
71 -178 72 -75 1 -125 -20 -179 -76 l-33 -35 -129 0 -129 1 -1 26 c0 14 -1
226 -1 471 -1 438 0 446 22 497 33 78 104 131 185 141 22 2 41 5 42 6 1 0
1069 0 2373 0 1879 -2 2381 -4 2417 -14z m-5357 -975 c0 -101 -3 -145 -11
-145 -25 0 -78 42 -92 73 -33 70 -22 131 34 181 66 61 69 56 69 -109z m-1
-976 l1 -150 -41 23 c-65 36 -91 94 -76 171 7 40 72 103 109 106 4 1 7 -67 7
-150z m0 -989 c1 -82 -2 -150 -6 -150 -5 0 -23 9 -41 20 -100 61 -94 212 10
263 18 9 34 17 35 17 1 0 2 -67 2 -150z m0 -970 c0 -151 0 -151 -22 -144 -82
24 -124 145 -77 221 14 24 74 68 98 73 1 0 2 -68 1 -150z m0 -969 c1 -142 0
-149 -18 -144 -38 10 -82 58 -95 103 -22 73 11 146 79 176 17 7 31 13 32 14 1
0 2 -67 2 -149z"/>
<path d="M2922 5236 l3 -641 1283 -2 1282 -1 0 642 0 643 -1285 0 -1285 0 2
-641z"/>
</g>
</svg>
